<?xml version="1.0" standalone="no"?>
<!DOCTYPE svg PUBLIC "-//W3C//DTD SVG 20010904//EN"
 "http://www.w3.org/TR/2001/REC-SVG-20010904/DTD/svg10.dtd">
<svg version="1.0" xmlns="http://www.w3.org/2000/svg"
 width="2162.000000pt" height="2162.000000pt" viewBox="0 0 2162.000000 2162.000000"
 preserveAspectRatio="xMidYMid meet">

<g transform="translate(0.000000,2162.000000) scale(0.100000,-0.100000)"
fill="#000000" stroke="none">
<path d="M10325 21609 c-436 -26 -713 -53 -1040 -100 -2867 -410 -5436 -1941
-7162 -4269 -1560 -2103 -2308 -4742 -2083 -7345 269 -3103 1841 -5919 4340
-7772 2103 -1560 4742 -2308 7345 -2083 3103 269 5919 1841 7772 4340 1560
2103 2308 4742 2083 7345 -269 3103 -1841 5919 -4340 7772 -1600 1187 -3513
1909 -5515 2083 -432 37 -1055 50 -1400 29z m1055 -580 c1664 -90 3298 -593
4725 -1457 1281 -775 2402 -1850 3230 -3097 272 -411 448 -717 666 -1160 608
-1236 943 -2519 1030 -3940 24 -401 13 -1042 -26 -1485 -137 -1540 -632 -3051
-1433 -4375 -194 -321 -664 -995 -704 -1010 -7 -3 -181 -4 -385 -3 l-373 3 96
115 c1244 1491 2005 3292 2198 5205 36 356 41 476 41 985 0 509 -5 629 -41
985 -201 1989 -1010 3846 -2343 5374 -186 214 -678 706 -892 892 -1463 1275
-3220 2070 -5119 2313 -675 87 -1414 101 -2110 41 -1627 -142 -3228 -718
-4580 -1648 -512 -352 -903 -678 -1366 -1141 -463 -463 -789 -854 -1141 -1366
-908 -1320 -1476 -2868 -1637 -4465 -36 -356 -41 -476 -41 -985 0 -509 5 -629
41 -985 193 -1911 956 -3719 2198 -5205 l96 -115 -373 -3 c-204 -1 -378 0
-385 3 -21 8 -308 401 -467 640 -272 411 -448 717 -666 1160 -554 1127 -893
2336 -1004 3585 -52 588 -52 1252 0 1840 178 2006 950 3918 2219 5494 656 816
1442 1534 2311 2111 411 272 717 448 1160 666 889 437 1811 735 2780 899 761
129 1519 171 2295 129z m-4915 -5740 c105 -5 240 -17 300 -26 61 -8 137 -19
170 -23 129 -18 200 -31 288 -51 51 -12 112 -25 137 -29 65 -12 345 -86 442
-116 118 -37 410 -146 565 -211 l131 -55 -4 -52 c-3 -28 -25 -406 -49 -841
-25 -434 -48 -827 -51 -873 l-6 -82 -311 2 -311 3 -8 30 c-4 17 -43 242 -88
500 -44 259 -97 566 -118 684 l-38 214 -74 44 c-151 91 -401 203 -555 249
-438 133 -1101 107 -1518 -57 -249 -99 -405 -198 -568 -359 -159 -158 -236
-276 -302 -467 -66 -188 -82 -291 -82 -523 1 -173 4 -221 23 -307 63 -289 170
-481 397 -709 261 -262 492 -402 1420 -863 1180 -586 1540 -801 1854 -1106
320 -311 484 -599 561 -985 41 -208 54 -356 47 -555 -18 -515 -157 -935 -427
-1295 -353 -471 -887 -806 -1555 -974 -426 -107 -845 -148 -1291 -126 -759 37
-1461 222 -2149 567 -104 52 -192 97 -194 99 -5 4 13 234 35 462 13 136 124
1498 124 1522 0 7 110 9 307 8 l307 -3 23 -130 c13 -71 61 -353 108 -625 114
-665 145 -833 153 -840 4 -3 61 -41 127 -85 147 -97 266 -160 412 -219 291
-117 513 -163 838 -173 336 -10 615 27 900 121 541 179 922 498 1083 906 76
192 106 362 106 595 0 251 -38 424 -139 630 -128 265 -430 560 -775 757 -244
139 -816 425 -1150 573 -164 73 -665 328 -869 442 -368 205 -544 332 -751 542
-326 329 -498 633 -574 1011 -67 336 -60 722 21 1065 84 359 274 692 539 945
322 307 777 550 1254 670 434 109 825 145 1285 119z m6277 -425 c2 -119 0
-218 -5 -221 -4 -2 -134 -20 -290 -39 -155 -19 -425 -51 -600 -73 -175 -21
-321 -42 -325 -46 -18 -18 -48 -4776 -32 -5095 27 -533 134 -982 330 -1385
141 -289 260 -464 440 -646 156 -157 293 -255 501 -359 369 -183 805 -270
1348 -270 328 0 566 27 817 90 224 57 332 96 504 181 656 326 1052 914 1199
1779 36 217 38 233 52 405 12 146 14 1365 4 2030 -20 1307 -43 2460 -60 2955
-3 85 -5 174 -5 197 0 41 0 41 -42 48 -24 4 -164 31 -313 61 -148 29 -394 76
-545 104 -151 28 -283 53 -292 56 -16 5 -18 24 -18 225 l0 219 1560 0 1560 0
0 -215 c0 -199 -1 -215 -19 -224 -10 -6 -151 -42 -312 -80 -162 -39 -370 -90
-464 -113 l-170 -43 -6 -275 c-4 -151 -12 -1089 -18 -2085 -19 -3043 -13
-2782 -76 -3190 -102 -663 -321 -1203 -662 -1634 -103 -130 -323 -347 -460
-454 -353 -276 -806 -486 -1277 -592 -716 -162 -1591 -162 -2391 0 -177 36
-458 119 -607 179 -625 253 -1060 654 -1344 1241 -240 497 -364 1072 -395
1827 -11 270 1 3198 18 4554 l6 511 -24 6 c-13 3 -217 35 -454 72 -236 36
-442 68 -457 71 l-28 6 0 219 0 219 1675 0 1674 0 3 -216z m768 -10533 c340
-87 612 -358 700 -701 28 -109 38 -323 20 -441 -31 -215 -129 -415 -279 -573
-179 -186 -405 -281 -696 -293 -339 -14 -592 71 -798 267 -220 209 -334 513
-313 837 30 463 352 835 795 918 120 23 460 14 571 -14z m-7010 -16 c0 -24 -2
-25 -72 -25 -93 0 -146 -23 -179 -76 l-24 -39 -6 -685 c-7 -746 -9 -773 -66
-890 -58 -119 -202 -225 -363 -267 -87 -22 -272 -22 -359 1 -141 38 -276 137
-336 248 -37 68 -46 176 -21 243 49 127 223 171 329 84 50 -41 70 -83 71 -149
1 -49 -5 -65 -47 -135 -26 -44 -47 -89 -47 -100 0 -59 78 -104 181 -105 120 0
165 54 180 217 12 140 11 1447 -1 1514 -18 95 -84 138 -212 139 -76 0 -78 1
-78 25 l0 25 525 0 525 0 0 -25z m1110 0 c0 -25 -1 -25 -78 -25 -99 0 -156
-26 -186 -85 -20 -39 -21 -57 -24 -650 -4 -628 3 -786 35 -881 23 -68 112
-154 190 -185 72 -28 229 -37 312 -19 188 42 318 184 357 390 20 108 32 1048
15 1198 -18 161 -73 220 -213 230 -63 4 -68 6 -68 28 l0 24 340 0 340 0 0 -25
c0 -23 -3 -25 -49 -25 -95 0 -164 -40 -202 -117 l-24 -48 -6 -610 c-6 -658
-11 -722 -63 -837 -66 -150 -238 -285 -421 -333 -152 -40 -407 -39 -560 0
-167 44 -319 162 -385 300 -62 129 -62 136 -69 865 -6 643 -7 666 -26 700 -29
50 -93 80 -172 80 -61 0 -63 1 -63 25 l0 25 510 0 510 0 0 -25z m2277 -558
c254 -320 476 -598 493 -617 l30 -35 -3 500 c-2 366 -6 510 -15 537 -29 84
-104 137 -209 146 -58 4 -63 7 -63 28 l0 24 325 0 325 0 0 -23 c0 -21 -7 -25
-61 -35 -95 -18 -129 -40 -164 -107 l-30 -59 -3 -903 -3 -904 -21 3 c-15 2
-232 262 -692 828 l-671 825 -3 -675 c-2 -724 -1 -740 49 -803 37 -48 104 -79
180 -85 65 -4 69 -6 69 -28 l0 -24 -345 0 -345 0 0 24 c0 21 5 24 65 29 103
10 165 51 202 132 17 37 18 94 21 803 l3 764 -51 61 c-72 89 -136 127 -212
127 -23 0 -28 4 -28 25 l0 25 348 -1 347 0 462 -582z m2053 558 c0 -24 -2 -25
-68 -25 -51 0 -79 -6 -112 -22 -60 -31 -80 -63 -90 -144 -11 -83 -12 -1461 -1
-1556 8 -81 30 -114 91 -145 33 -17 61 -23 112 -23 66 0 68 -1 68 -25 l0 -25
-515 0 -515 0 0 25 c0 24 2 25 73 25 97 0 153 27 185 90 l22 44 -1 811 c0 600
-3 819 -12 845 -8 21 -28 45 -55 65 -39 27 -53 30 -128 34 -81 3 -84 4 -84 27
l0 24 515 0 515 0 0 -25z m3762 2 c189 -28 311 -85 403 -190 164 -187 165
-483 3 -662 -55 -61 -135 -110 -235 -145 -41 -14 -75 -30 -75 -34 0 -10 425
-615 509 -723 77 -100 114 -130 182 -146 46 -11 51 -14 51 -39 l0 -28 -309 0
-309 0 -318 454 -319 455 -72 0 -73 1 0 -312 c1 -172 5 -344 10 -382 14 -116
62 -157 191 -164 75 -4 79 -6 79 -28 l0 -24 -505 0 -505 0 0 24 c0 22 4 24 79
28 86 5 134 27 167 76 18 26 19 66 19 869 0 840 0 842 -21 870 -35 47 -79 66
-165 71 -76 4 -79 5 -79 29 l0 25 593 -5 c459 -4 616 -8 699 -20z"/>
<path d="M13102 4269 c-169 -33 -305 -180 -375 -405 -45 -143 -61 -284 -60
-529 0 -177 4 -242 21 -335 68 -372 216 -555 465 -576 144 -13 262 31 354 129
96 103 153 234 189 432 26 140 26 592 1 739 -34 192 -99 339 -191 432 -101
100 -254 143 -404 113z"/>
<path d="M15140 3800 l0 -430 118 0 c151 0 232 13 309 51 140 68 208 232 183
447 -12 107 -33 168 -79 228 -74 96 -184 134 -393 134 l-138 0 0 -430z"/>
</g>
</svg>
